<svg width="320" height="280" viewBox="0 0 320 280" fill="none" xmlns="http://www.w3.org/2000/svg">
<rect width="320" height="280" fill="#428270"/>
<path d="M127.545 182C119.861 182 113.63 179.302 108.854 173.905C104.285 168.3 102 161.035 102 152.11C102 140.486 105.427 129.692 112.28 119.729C119.134 109.558 127.649 101.982 137.826 97L139.695 100.736C135.334 104.057 131.491 108.313 128.168 113.502C124.845 118.691 122.457 125.126 121.003 132.806L127.545 134.363C134.814 136.023 140.422 139.137 144.368 143.703C148.522 148.062 150.598 153.355 150.598 159.582C150.598 166.225 148.314 171.621 143.745 175.773C139.383 179.924 133.984 182 127.545 182Z" fill="#00FFB6"/>
<path d="M195.186 182C187.502 182 181.271 179.302 176.494 173.905C171.925 168.3 169.641 161.035 169.641 152.11C169.641 140.486 173.068 129.692 179.921 119.729C186.775 109.558 195.29 101.982 205.467 97L207.336 100.736C202.974 104.057 199.132 108.313 195.809 113.502C192.486 118.691 190.098 125.126 188.644 132.806L195.186 134.363C202.455 136.023 208.063 139.137 212.009 143.703C216.162 148.062 218.239 153.355 218.239 159.582C218.239 166.225 215.955 171.621 211.386 175.773C207.024 179.924 201.624 182 195.186 182Z" fill="white"/>
</svg>
