<svg width="320" height="280" viewBox="0 0 320 280" fill="none" xmlns="http://www.w3.org/2000/svg">
<rect width="320" height="280" fill="#428270"/>
<path d="M115.64 198C105.153 198 96.6499 194.317 90.131 186.952C83.8956 179.304 80.7778 169.389 80.7778 157.209C80.7778 141.346 85.4544 126.615 94.8076 113.018C104.161 99.138 115.781 88.7985 129.669 82L132.22 87.0989C126.268 91.6313 121.025 97.4383 116.49 104.52C111.955 111.602 108.696 120.383 106.712 130.864L115.64 132.989C125.56 135.255 133.212 139.504 138.598 145.736C144.266 151.685 147.1 158.908 147.1 167.407C147.1 176.471 143.983 183.836 137.747 189.502C131.795 195.167 124.426 198 115.64 198Z" fill="#00FFB6"/>
<path d="M207.95 198C197.463 198 188.96 194.317 182.441 186.952C176.205 179.304 173.088 169.389 173.088 157.209C173.088 141.346 177.764 126.615 187.117 113.018C196.471 99.138 208.091 88.7985 221.979 82L224.53 87.0989C218.578 91.6313 213.335 97.4383 208.8 104.52C204.265 111.602 201.005 120.383 199.021 130.864L207.95 132.989C217.87 135.255 225.522 139.504 230.907 145.736C236.576 151.685 239.41 158.908 239.41 167.407C239.41 176.471 236.293 183.836 230.057 189.502C224.105 195.167 216.736 198 207.95 198Z" fill="white"/>
</svg>
